# FamiTracker text export 0.4.2

# Song information
TITLE           "Lan Master music"
AUTHOR          "Shiru 05'11"
COPYRIGHT       ""

# Song comment
COMMENT ""

# Global settings
MACHINE         0
FRAMERATE       0
EXPANSION       0
VIBRATO         1
SPLIT           32

# Macros
MACRO       0   0  -1  -1   0 : 15 15 15 15 0
MACRO       0   1  -1  -1   0 : 1 0 1 1 1 0 1 0 1 0 1 1 1 0 1 1 1 1 0 1 1 1 1 0 1 1 1 1 1 1 1 1 0 2 1 2 2 2 1 2 2 2 1 2 2 1 2 2 2 2 2 2 1 2 2 2 2 2 2 3 3 3 3 2 3 3 3 3 3 2 3 3 3 3 3 3 3 2 3 3 3 3 3 3 3 3 3 3 2 3 3 3 3 3 3 3 3 3 2 2 2 2 2 1 2 2 2 2 2 2 2 2 2 1 2 2 2 2 2 2 1 2 2 1 1 1 1 1 1 1 1 1 1 1 1 1 1 1 1 1 1 1 0 1 1 1 1 1 0 1 1 0 1 1 0 1 1 0 1 0
MACRO       0   2  -1  -1   0 : 3 3 3 0 1 0 0 0 2 2 2 0 2 0 0 0 2 2 0 0 2 0 0 0 2 2 0 0 2 0
MACRO       0   3  -1  -1   0 : 1 2 3 2 1
MACRO       0   4  -1  -1   0 : 2 2 2 0
MACRO       0   5  -1  -1   0 : 15 15 15 0
MACRO       0   6  -1  -1   0 : 3 4 3 2
MACRO       0   7  -1  -1   0 : 2 2 2 2 1 1 1 1 1 1 1 1 1 1 1 0
MACRO       0   8  -1  -1   0 : 2 2 3 3 3 4 4 4 4 4 4 4 4 4 4 4 4 4 4 4 4 4 4 4 4 4 4 4 4 4 4 4 4 4 4 4 4 4 4 4 4 4 3 4 3 4 3 4 3 4 3 4 3 4 3 4 3 3 3 3 3 3 3 3 3 3 3 3 3 3 3 3 3 3 3 3 3 3 3 3 2 3 2 3 2 3 2 3 2 3 2 3 2 3 2 3 2 3 2 2 2 2 2 2 2 2 2 2 2 2 2 2 2 2 2 2 2 2 2 2 2 1 2 1 2 1 2 1 2 1 2 1 2 1 2 1 2 1 2 1 1 1 1 1 1 1 1 1 1 1 0 1 1 1 1 1 1 1 0 1 1 0 1 1 0 1 0 1 0 1 0 1 0 0 0 1 0 0 0 1 0 0 0 0 1 0
MACRO       0   9  -1  -1   0 : 4 2 1 1 1 1 1 0
MACRO       0  10  -1  -1   0 : 15 15 15 15 15 15 0
MACRO       0  11  -1  -1   0 : 15
MACRO       0  12  -1  -1   0 : 2 3 2 2
MACRO       0  13  -1  -1   0 : 15 15 0
MACRO       0  14  -1  -1   0 : 3 4 5 5 4 3 1 1 1 1 1 1 1 1 1 1 1 1 1 1 0
MACRO       0  15  -1  -1   0 : 1 2 2 1 1 1 1 0
MACRO       0  16  -1  -1   0 : 2 2 2 2 2 2 2 2 2 2 2 2 2 2 2 2 2 2 2 2 2 2 2 2 2 2 2 2 2 2 2 2 2 2 2 2 2 2 2 2 2 2 2 2 2 2 2 2 1 1 1 1 1 1 1 1 1 1 1 1 1 1 1 1 1 1 1 1 1 1 1 1 1 1 1 1 1 1 1 1 1 1 1 1 1 1 1 1 1 1 1 1 1 1 1 1 1 1 1 1 1 1 1 1 1 1 1 1 1 1 1 1 1 1 1 1 1 1 1 1 1 1 1 1 1 1 1 0
MACRO       0  17  -1  -1   0 : 2
MACRO       0  18  -1  -1   0 : 3
MACRO       0  19  -1  -1   0 : 1 1 1 0
MACRO       1   0  -1  -1   0 : 0 -3 -6
MACRO       1   1  -1  -1   0 : -3 -2 -1 0
MACRO       1   2  -1  -1   0 : -4 -4 -3 -3 -2 -2 -1 -1 0
MACRO       1   3  -1  -1   0 : 12 0
MACRO       2   0  -1  -1   0 : 10
MACRO       2   1   0  -1   0 : 1 0 1 0 1 0 1 0 1 0 1 0 -1 0 -1 0 -1 0 -1 0 -1 0 -1 0
MACRO       2   2  -1  -1   0 : 2
MACRO       2   3  18  -1   0 : 0 0 0 0 0 0 0 0 0 0 0 0 0 0 0 0 0 0 1 0 0 0 1 0 0 0 -1 0 0 0 -1 0 0 0
MACRO       2   4   0  -1   0 : 1 1 1 -1 -1 -1
MACRO       2   5  -1  -1   0 : -20 -10 -5 0
MACRO       4   0  -1  -1   0 : 0
MACRO       4   1  -1  -1   0 : 1
MACRO       4   2  -1  -1   0 : 0
MACRO       4   3  -1  -1   0 : 1
MACRO       4   4  -1  -1   0 : 1
MACRO       4   5  -1  -1   0 : 0
MACRO       4   6  -1  -1   0 : 0
MACRO       4   7  -1  -1   0 : 1
MACRO       4   8  -1  -1   0 : 1
MACRO       4   9  -1  -1   0 : 2

# DPCM samples
DPCMDEF   0    81 "bde"
DPCM : AA 5A 55 0F FE 15 F8 C1 81 A2 82 0D AA AA AA AA AA AA AA AA 76 DB 6D EA 5F D4 55 55 55 55 55 55
DPCM : 55 55 55 55 55 A5 54 A9 94 4A A9 4A A5 4A 29 95 52 AD 54 A5 AA AA 6A 55 AB 5A 55 AD AA 56 B5 AA
DPCM : 5A 55 AB AA 5A B5 56 D5 AA AA AA AA 52 55 95 AA 55
DPCMDEF   1   161 "tom2"
DPCM : AA AA AA AA 0A 47 35 0F 2F 3E C7 E3 58 96 15 17 1E 2B 8B E1 42 79 A8 AA A6 AA 55 B5 AA 3A 3D 57
DPCM : 53 55 55 55 55 A5 2A 95 AA 52 4A A5 A6 9A AA 56 AD D6 AA D6 AA B5 D4 AC B4 52 A9 94 AA 94 4A 55
DPCM : A6 AA 5A 55 6B B5 AA D6 5A D5 AC 4A 4B 95 4A A9 2A 95 2A 55 A9 AA 56 AD 5A AB AA D5 AA 55 CD B2
DPCM : 52 A5 4A A5 4A A5 4A 55 65 56 55 B5 5A AD 6A B5 6A 55 55 55 95 AA 54 A9 AA 54 AA 52 55 55 B5 6A
DPCM : 55 AB AA 55 AD AA 55 55 95 2A 55 AA AA 54 A5 AA 52 55 B3 AA 55 AD AA 6A D5 AA AA 55 55 A9 AA 54
DPCM : 55
DPCMDEF   2   305 "bds"
DPCM : EA 54 35 9A 0F CF E6 F1 DB 9A 9C 89 07 80 00 0A 0C 46 55 55 55 55 55 7F BF EF 5E 5B 3D 2F AB 34
DPCM : 5D 10 07 1E 96 58 95 AD 95 5E 96 AA B4 2F B5 3D 15 0B 91 90 86 12 83 08 E3 41 D1 D4 D4 A3 7F BD
DPCM : 7E E5 1C CF 4A D7 A3 8C 33 2C 18 53 90 06 1D 47 13 D1 F0 C6 B2 FD 8E D7 9B 5A 9D 86 E9 0E 5C B2
DPCM : A9 32 4D 46 0B 1C A7 E5 E6 35 6B D6 34 3B EE B3 CE 5B AE A9 19 52 54 11 C9 14 63 F0 B0 0C E3 E9
DPCM : E5 9C 3A EE E8 94 F2 61 76 CC 51 4E 8E A2 92 B2 74 D8 B5 CA AA 2E C7 E9 74 A3 5C 9C D2 48 A5 70
DPCM : D0 21 29 D2 46 CB 54 C5 E5 79 71 6D BD 1A 9D 6B B1 B2 66 C9 A9 4A 15 9E 4A E3 56 CD 9A D3 D2 75
DPCM : EA 1C 9D D3 1C 63 A1 29 53 54 93 AA 32 55 52 8B 4D AD B9 AA 56 AD 66 D3 64 E5 A8 45 A6 72 A9 AA
DPCM : 2A 95 56 C6 A9 AA 33 D3 AA 4A AB AA 56 96 AA 2A CB AC B4 4A B5 32 59 95 AA 66 36 E5 AA AA AA 5A
DPCM : 6A A9 66 D5 4A A3 A6 AA AA A9 AA AA AA 6A 9A A6 AA AA AA AA A9 AA A5 AA A6 AA A9 AA 56 AA EA 54
DPCM : AA AA AA 52 4D 95 6A 55 B5 AA AA AA AA 6A AA 95 55

# Instruments
INST2A03   0     0  -1  -1  -1  -1 "bass3"
KEYDPCM   0   3   0     0  15   0     0  -1
KEYDPCM   0   3   2     1  15   0     0  -1
KEYDPCM   0   3   4     2  15   0     0  -1
INST2A03   1     1  -1   1  -1   0 "slow1"
INST2A03   2     1  -1   0  -1   0 "slow2"
INST2A03   3     2  -1  -1  -1   4 "noise1"
INST2A03   4     3  -1  -1  -1   4 "noise2"
INST2A03   5     4  -1  -1  -1   4 "noise3"
INST2A03   6     6  -1  -1  -1   1 "arp1"
INST2A03   7     7  -1  -1  -1   2 "arp1echo"
INST2A03   8    12  -1   2  -1   1 "arp2"
INST2A03   9     7  -1   2  -1   2 "arp2echo"
INST2A03  10     8  -1   3  -1   3 "solo"
INST2A03  11     9  -1  -1  -1   5 "hat"
INST2A03  12    10  -1   4  -1  -1 "bass6"
INST2A03  13    11  -1  -1  -1  -1 "bass"
INST2A03  14    13  -1  -1  -1  -1 "bass2"
INST2A03  15    11   1  -1  -1  -1 "bassup"
INST2A03  16     8   2   3  -1   3 "soloup"
INST2A03  17    16  -1   3  -1   7 "solom"
INST2A03  18    17  -1   4  -1   8 "solotm"
INST2A03  19    18  -1   4  -1   8 "solots"
INST2A03  20    19  -1  -1  -1   4 "noise2m"

# Tracks

TRACK  64   6 150 "title"
COLUMNS : 1 1 1 1 1

ORDER 00 : 00 00 00 00 00
ORDER 01 : 01 01 01 01 01
ORDER 02 : 02 02 02 02 02
ORDER 03 : 03 03 03 03 03
ORDER 04 : 04 04 04 04 04
ORDER 05 : 08 08 08 08 08
ORDER 06 : 05 05 05 05 05
ORDER 07 : 06 06 06 06 06
ORDER 08 : 05 05 05 05 05
ORDER 09 : 07 07 07 07 07
ORDER 0A : 00 00 00 00 00
ORDER 0B : 09 09 09 09 09

PATTERN 00
ROW 00 : D-1 01 . ... : ... .. . ... : D-1 0D . ... : --- .. . ... : C-3 00 . ...
ROW 01 : ... .. . ... : ... .. . ... : ... .. . ... : ... .. . ... : ... .. . ...
ROW 02 : ... .. . ... : ... .. . ... : ... .. . ... : D-# 05 . ... : ... .. . ...
ROW 03 : ... .. . ... : ... .. . ... : ... .. . ... : ... .. . ... : ... .. . ...
ROW 04 : ... .. . ... : ... .. . ... : --- .. . ... : D-# 14 . ... : ... .. . ...
ROW 05 : ... .. . ... : ... .. . ... : ... .. . ... : D-# 05 . ... : ... .. . ...
ROW 06 : ... .. . ... : ... .. . ... : ... .. . ... : ... .. . ... : ... .. . ...
ROW 07 : ... .. . ... : ... .. . ... : ... .. . ... : D-# 14 . ... : ... .. . ...
ROW 08 : ... .. . ... : ... .. . ... : ... .. . ... : D-# 05 . ... : ... .. . ...
ROW 09 : ... .. . ... : ... .. . ... : ... .. . ... : D-# 05 . ... : ... .. . ...
ROW 0A : ... .. . ... : ... .. . ... : ... .. . ... : ... .. . ... : ... .. . ...
ROW 0B : ... .. . ... : ... .. . ... : ... .. . ... : D-# 14 . ... : ... .. . ...
ROW 0C : ... .. . ... : D-1 02 . ... : ... .. . ... : D-# 05 . ... : ... .. . ...
ROW 0D : ... .. . ... : ... .. . ... : ... .. . ... : ... .. . ... : ... .. . ...
ROW 0E : ... .. . ... : ... .. . ... : C-1 0D . ... : ... .. . ... : C-3 00 . ...
ROW 0F : ... .. . ... : ... .. . ... : ... .. . ... : ... .. . ... : ... .. . ...
ROW 10 : ... .. . ... : ... .. . ... : D-1 0D . ... : D-# 14 . ... : C-3 00 . ...
ROW 11 : ... .. . ... : ... .. . ... : ... .. . ... : ... .. . ... : ... .. . ...
ROW 12 : ... .. . ... : ... .. . ... : ... .. . ... : D-# 05 . ... : ... .. . ...
ROW 13 : ... .. . ... : ... .. . ... : ... .. . ... : ... .. . ... : ... .. . ...
ROW 14 : ... .. . ... : ... .. . ... : --- .. . ... : D-# 14 . ... : ... .. . ...
ROW 15 : ... .. . ... : ... .. . ... : ... .. . ... : D-# 05 . ... : ... .. . ...
ROW 16 : ... .. . ... : ... .. . ... : ... .. . ... : ... .. . ... : ... .. . ...
ROW 17 : ... .. . ... : ... .. . ... : ... .. . ... : D-# 14 . ... : ... .. . ...
ROW 18 : ... .. . ... : ... .. . ... : ... .. . ... : D-# 05 . ... : ... .. . ...
ROW 19 : ... .. . ... : ... .. . ... : ... .. . ... : D-# 05 . ... : ... .. . ...
ROW 1A : ... .. . ... : ... .. . ... : ... .. . ... : ... .. . ... : ... .. . ...
ROW 1B : ... .. . ... : ... .. . ... : ... .. . ... : D-# 14 . ... : ... .. . ...
ROW 1C : ... .. . ... : ... .. . ... : ... .. . ... : B-# 04 . ... : ... .. . ...
ROW 1D : ... .. . ... : ... .. . ... : ... .. . ... : ... .. . ... : ... .. . ...
ROW 1E : ... .. . ... : ... .. . ... : ... .. . ... : 9-# 14 . ... : ... .. . ...
ROW 1F : ... .. . ... : ... .. . ... : ... .. . ... : ... .. . ... : ... .. . ...
ROW 20 : D-1 01 . ... : ... .. . ... : D-1 0D . ... : ... .. . ... : C-3 00 . ...
ROW 21 : ... .. . ... : ... .. . ... : ... .. . ... : ... .. . ... : ... .. . ...
ROW 22 : ... .. . ... : ... .. . ... : ... .. . ... : D-# 05 . ... : ... .. . ...
ROW 23 : ... .. . ... : ... .. . ... : ... .. . ... : ... .. . ... : ... .. . ...
ROW 24 : ... .. . ... : ... .. . ... : --- .. . ... : D-# 14 . ... : ... .. . ...
ROW 25 : ... .. . ... : ... .. . ... : ... .. . ... : D-# 05 . ... : ... .. . ...
ROW 26 : ... .. . ... : ... .. . ... : ... .. . ... : ... .. . ... : ... .. . ...
ROW 27 : ... .. . ... : ... .. . ... : ... .. . ... : D-# 14 . ... : ... .. . ...
ROW 28 : ... .. . ... : ... .. . ... : ... .. . ... : D-# 05 . ... : ... .. . ...
ROW 29 : ... .. . ... : ... .. . ... : ... .. . ... : D-# 05 . ... : ... .. . ...
ROW 2A : ... .. . ... : ... .. . ... : ... .. . ... : ... .. . ... : ... .. . ...
ROW 2B : ... .. . ... : ... .. . ... : ... .. . ... : D-# 14 . ... : ... .. . ...
ROW 2C : ... .. . ... : D-1 06 . ... : ... .. . ... : D-# 05 . ... : ... .. . ...
ROW 2D : ... .. . ... : F-1 06 . ... : ... .. . ... : ... .. . ... : ... .. . ...
ROW 2E : ... .. . ... : A-1 06 . ... : C-1 0D . ... : D-# 14 . ... : C-3 00 . ...
ROW 2F : ... .. . ... : D-2 06 . ... : ... .. . ... : ... .. . ... : ... .. . ...
ROW 30 : D-1 07 . ... : A-2 06 . ... : D-1 0D . ... : ... .. . ... : C-3 00 . ...
ROW 31 : F-1 07 . ... : --- .. . ... : ... .. . ... : ... .. . ... : ... .. . ...
ROW 32 : A-1 07 . ... : ... .. . ... : ... .. . ... : D-# 05 . ... : ... .. . ...
ROW 33 : D-2 07 . ... : ... .. . ... : ... .. . ... : ... .. . ... : ... .. . ...
ROW 34 : A-2 07 . ... : ... .. . ... : --- .. . ... : D-# 14 . ... : ... .. . ...
ROW 35 : --- .. . ... : ... .. . ... : ... .. . ... : D-# 05 . ... : ... .. . ...
ROW 36 : ... .. . ... : ... .. . ... : ... .. . ... : ... .. . ... : ... .. . ...
ROW 37 : ... .. . ... : ... .. . ... : ... .. . ... : D-# 14 . ... : ... .. . ...
ROW 38 : F-2 02 . ... : F-2 02 . ... : ... .. . ... : C-# 04 . ... : ... .. . ...
ROW 39 : ... .. . ... : ... .. . ... : ... .. . ... : ... .. . ... : ... .. . ...
ROW 3A : ... .. . ... : ... .. . ... : ... .. . ... : ... .. . ... : ... .. . ...
ROW 3B : ... .. . ... : ... .. . ... : ... .. . ... : ... .. . ... : ... .. . ...
ROW 3C : ... .. . ... : ... .. . ... : ... .. . ... : ... .. . ... : C-3 00 . ...
ROW 3D : ... .. . ... : ... .. . ... : ... .. . ... : ... .. . ... : C-3 00 . ...
ROW 3E : ... .. . ... : ... .. . ... : ... .. . ... : 9-# 14 . ... : C-3 00 . ...
ROW 3F : ... .. . ... : ... .. . ... : ... .. . ... : ... .. . ... : C-3 00 . ...

PATTERN 01
ROW 00 : D-1 01 . ... : --- .. . ... : D-1 0D . ... : --- .. . ... : C-3 00 . ...
ROW 01 : ... .. . ... : ... .. . ... : ... .. . ... : ... .. . ... : ... .. . ...
ROW 02 : ... .. . ... : ... .. . ... : ... .. . ... : D-# 05 . ... : ... .. . ...
ROW 03 : ... .. . ... : ... .. . ... : ... .. . ... : ... .. . ... : ... .. . ...
ROW 04 : ... .. . ... : ... .. . ... : --- .. . ... : D-# 14 . ... : ... .. . ...
ROW 05 : ... .. . ... : ... .. . ... : ... .. . ... : D-# 05 . ... : ... .. . ...
ROW 06 : ... .. . ... : ... .. . ... : ... .. . ... : ... .. . ... : ... .. . ...
ROW 07 : ... .. . ... : ... .. . ... : ... .. . ... : D-# 14 . ... : ... .. . ...
ROW 08 : ... .. . ... : ... .. . ... : ... .. . ... : D-# 05 . ... : ... .. . ...
ROW 09 : ... .. . ... : ... .. . ... : ... .. . ... : D-# 05 . ... : ... .. . ...
ROW 0A : ... .. . ... : ... .. . ... : ... .. . ... : ... .. . ... : ... .. . ...
ROW 0B : ... .. . ... : ... .. . ... : ... .. . ... : D-# 14 . ... : ... .. . ...
ROW 0C : ... .. . ... : D-1 02 . ... : ... .. . ... : D-# 05 . ... : ... .. . ...
ROW 0D : ... .. . ... : ... .. . ... : ... .. . ... : ... .. . ... : ... .. . ...
ROW 0E : ... .. . ... : ... .. . ... : C-1 0D . ... : ... .. . ... : C-3 00 . ...
ROW 0F : ... .. . ... : ... .. . ... : ... .. . ... : ... .. . ... : ... .. . ...
ROW 10 : ... .. . ... : ... .. . ... : D-1 0D . ... : D-# 14 . ... : C-3 00 . ...
ROW 11 : ... .. . ... : ... .. . ... : ... .. . ... : ... .. . ... : ... .. . ...
ROW 12 : ... .. . ... : ... .. . ... : ... .. . ... : D-# 05 . ... : ... .. . ...
ROW 13 : ... .. . ... : ... .. . ... : ... .. . ... : ... .. . ... : ... .. . ...
ROW 14 : ... .. . ... : ... .. . ... : --- .. . ... : D-# 14 . ... : ... .. . ...
ROW 15 : ... .. . ... : ... .. . ... : ... .. . ... : D-# 05 . ... : ... .. . ...
ROW 16 : ... .. . ... : ... .. . ... : ... .. . ... : ... .. . ... : ... .. . ...
ROW 17 : ... .. . ... : ... .. . ... : ... .. . ... : D-# 14 . ... : ... .. . ...
ROW 18 : ... .. . ... : ... .. . ... : ... .. . ... : D-# 05 . ... : ... .. . ...
ROW 19 : ... .. . ... : ... .. . ... : ... .. . ... : D-# 05 . ... : ... .. . ...
ROW 1A : ... .. . ... : ... .. . ... : ... .. . ... : ... .. . ... : ... .. . ...
ROW 1B : ... .. . ... : ... .. . ... : ... .. . ... : D-# 14 . ... : ... .. . ...
ROW 1C : ... .. . ... : ... .. . ... : ... .. . ... : B-# 04 . ... : ... .. . ...
ROW 1D : ... .. . ... : ... .. . ... : ... .. . ... : ... .. . ... : ... .. . ...
ROW 1E : ... .. . ... : ... .. . ... : ... .. . ... : 9-# 14 . ... : ... .. . ...
ROW 1F : ... .. . ... : ... .. . ... : ... .. . ... : ... .. . ... : ... .. . ...
ROW 20 : D-1 01 . ... : ... .. . ... : D-1 0D . ... : ... .. . ... : C-3 00 . ...
ROW 21 : ... .. . ... : ... .. . ... : ... .. . ... : ... .. . ... : ... .. . ...
ROW 22 : ... .. . ... : ... .. . ... : ... .. . ... : D-# 05 . ... : ... .. . ...
ROW 23 : ... .. . ... : ... .. . ... : ... .. . ... : ... .. . ... : ... .. . ...
ROW 24 : ... .. . ... : ... .. . ... : --- .. . ... : D-# 14 . ... : ... .. . ...
ROW 25 : ... .. . ... : ... .. . ... : ... .. . ... : D-# 05 . ... : ... .. . ...
ROW 26 : ... .. . ... : ... .. . ... : ... .. . ... : ... .. . ... : ... .. . ...
ROW 27 : ... .. . ... : ... .. . ... : ... .. . ... : D-# 14 . ... : ... .. . ...
ROW 28 : ... .. . ... : ... .. . ... : ... .. . ... : D-# 05 . ... : ... .. . ...
ROW 29 : ... .. . ... : ... .. . ... : ... .. . ... : D-# 05 . ... : ... .. . ...
ROW 2A : ... .. . ... : ... .. . ... : ... .. . ... : ... .. . ... : ... .. . ...
ROW 2B : ... .. . ... : ... .. . ... : ... .. . ... : D-# 14 . ... : ... .. . ...
ROW 2C : ... .. . ... : D-1 08 . ... : ... .. . ... : D-# 05 . ... : ... .. . ...
ROW 2D : ... .. . ... : A-1 08 . ... : ... .. . ... : ... .. . ... : ... .. . ...
ROW 2E : ... .. . ... : D-2 08 . ... : C-1 0D . ... : D-# 14 . ... : C-3 00 . ...
ROW 2F : ... .. . ... : F-2 08 . ... : ... .. . ... : ... .. . ... : ... .. . ...
ROW 30 : D-1 09 . ... : A-2 08 . ... : D-1 0D . ... : ... .. . ... : C-3 00 . ...
ROW 31 : A-1 09 . ... : --- .. . ... : ... .. . ... : ... .. . ... : ... .. . ...
ROW 32 : D-2 09 . ... : ... .. . ... : ... .. . ... : D-# 05 . ... : ... .. . ...
ROW 33 : F-2 09 . ... : ... .. . ... : ... .. . ... : ... .. . ... : ... .. . ...
ROW 34 : A-2 09 . ... : ... .. . ... : --- .. . ... : D-# 14 . ... : ... .. . ...
ROW 35 : --- .. . ... : ... .. . ... : ... .. . ... : D-# 05 . ... : ... .. . ...
ROW 36 : ... .. . ... : ... .. . ... : ... .. . ... : ... .. . ... : ... .. . ...
ROW 37 : ... .. . ... : ... .. . ... : ... .. . ... : D-# 14 . ... : ... .. . ...
ROW 38 : F-2 01 . ... : F-2 02 . ... : ... .. . ... : D-# 04 . ... : C-3 00 . ...
ROW 39 : ... .. . ... : ... .. . ... : ... .. . ... : ... .. . ... : ... .. . ...
ROW 3A : ... .. . ... : ... .. . ... : ... .. . ... : ... .. . ... : ... .. . ...
ROW 3B : ... .. . ... : ... .. . ... : ... .. . ... : ... .. . ... : ... .. . ...
ROW 3C : ... .. . ... : ... .. . ... : ... .. . ... : --- 14 . ... : E-3 00 . ...
ROW 3D : ... .. . ... : ... .. . ... : ... .. . ... : ... .. . ... : E-3 00 . ...
ROW 3E : ... .. . ... : ... .. . ... : ... .. . ... : ... .. . ... : E-3 00 . ...
ROW 3F : ... .. . ... : ... .. . ... : ... .. . ... : ... .. . ... : E-3 00 . ...

PATTERN 02
ROW 00 : D-1 06 . ... : D-1 08 . ... : D-2 0D . ... : F-# 0B . ... : C-3 00 . ...
ROW 01 : ... .. . ... : ... .. . ... : ... .. . ... : F-# 0B . ... : ... .. . ...
ROW 02 : D-2 06 . ... : D-2 08 . ... : D-3 00 . ... : D-# 05 . ... : ... .. . ...
ROW 03 : ... .. . ... : ... .. . ... : ... .. . ... : F-# 0B . ... : ... .. . ...
ROW 04 : D-2 07 . ... : D-2 09 . ... : ... .. . ... : D-# 14 . ... : E-3 00 . ...
ROW 05 : D-2 06 . ... : D-2 08 . ... : D-3 00 . ... : D-# 05 . ... : ... .. . ...
ROW 06 : ... .. . ... : ... .. . ... : ... .. . ... : F-# 0B . ... : D-3 00 . ...
ROW 07 : D-2 07 . ... : D-2 09 . ... : ... .. . ... : D-# 14 . ... : C-3 00 . ...
ROW 08 : C-2 06 . ... : C-2 08 . ... : C-3 00 . ... : D-# 05 . ... : ... .. . ...
ROW 09 : D-2 06 . ... : D-2 08 . ... : D-3 00 . ... : D-# 05 . ... : ... .. . ...
ROW 0A : ... .. . ... : ... .. . ... : ... .. . ... : F-# 0B . ... : C-3 00 . ...
ROW 0B : C-2 07 . ... : C-2 09 . ... : ... .. . ... : D-# 14 . ... : ... .. . ...
ROW 0C : D-2 06 . ... : D-2 08 . ... : D-3 00 . ... : D-# 05 . ... : E-3 00 . ...
ROW 0D : D-2 07 . ... : D-2 09 . ... : ... .. . ... : F-# 0B . ... : C-3 00 . ...
ROW 0E : C-1 06 . ... : C-1 08 . ... : C-2 0D . ... : F-# 0B . ... : ... .. . ...
ROW 0F : ... .. . ... : ... .. . ... : ... .. . ... : F-# 0B . ... : ... .. . ...
ROW 10 : D-1 06 . ... : D-1 08 . ... : D-2 0D . ... : D-# 14 . ... : C-3 00 . ...
ROW 11 : ... .. . ... : ... .. . ... : ... .. . ... : F-# 0B . ... : ... .. . ...
ROW 12 : D-2 06 . ... : D-2 08 . ... : D-3 00 . ... : D-# 05 . ... : ... .. . ...
ROW 13 : ... .. . ... : ... .. . ... : ... .. . ... : F-# 0B . ... : ... .. . ...
ROW 14 : D-2 07 . ... : D-2 09 . ... : ... .. . ... : D-# 14 . ... : E-3 00 . ...
ROW 15 : D-2 06 . ... : D-2 08 . ... : D-3 00 . ... : D-# 05 . ... : ... .. . ...
ROW 16 : ... .. . ... : ... .. . ... : ... .. . ... : F-# 0B . ... : D-3 00 . ...
ROW 17 : D-2 07 . ... : D-2 09 . ... : ... .. . ... : D-# 14 . ... : C-3 00 . ...
ROW 18 : C-2 06 . ... : C-2 08 . ... : C-3 00 . ... : D-# 05 . ... : ... .. . ...
ROW 19 : D-2 06 . ... : D-2 08 . ... : D-3 00 . ... : D-# 05 . ... : ... .. . ...
ROW 1A : ... .. . ... : ... .. . ... : ... .. . ... : F-# 0B . ... : C-3 00 . ...
ROW 1B : C-2 07 . ... : C-2 09 . ... : ... .. . ... : D-# 14 . ... : ... .. . ...
ROW 1C : F-2 06 . ... : F-2 08 . ... : F-3 00 . ... : C-# 04 . ... : E-3 00 . ...
ROW 1D : D-2 07 . ... : D-2 09 . ... : ... .. . ... : ... .. . ... : ... .. . ...
ROW 1E : E-2 06 . ... : E-2 08 . ... : E-3 00 . ... : F-# 0B . ... : ... .. . ...
ROW 1F : F-2 07 . ... : F-2 09 . ... : ... .. . ... : F-# 0B . ... : ... .. . ...
ROW 20 : D-1 06 . ... : D-1 08 . ... : D-2 0D . ... : B-# 14 . ... : C-3 00 . ...
ROW 21 : E-2 07 . ... : E-2 09 . ... : ... .. . ... : F-# 0B . ... : ... .. . ...
ROW 22 : D-2 06 . ... : D-2 08 . ... : D-3 00 . ... : D-# 05 . ... : ... .. . ...
ROW 23 : ... .. . ... : ... .. . ... : ... .. . ... : F-# 0B . ... : ... .. . ...
ROW 24 : D-2 07 . ... : D-2 09 . ... : ... .. . ... : D-# 14 . ... : E-3 00 . ...
ROW 25 : D-2 06 . ... : D-2 08 . ... : D-3 00 . ... : D-# 05 . ... : ... .. . ...
ROW 26 : ... .. . ... : ... .. . ... : ... .. . ... : F-# 0B . ... : D-3 00 . ...
ROW 27 : D-2 07 . ... : D-2 09 . ... : ... .. . ... : D-# 14 . ... : C-3 00 . ...
ROW 28 : C-2 06 . ... : C-2 08 . ... : C-3 00 . ... : D-# 05 . ... : ... .. . ...
ROW 29 : D-2 06 . ... : D-2 08 . ... : D-3 00 . ... : D-# 05 . ... : ... .. . ...
ROW 2A : ... .. . ... : ... .. . ... : ... .. . ... : F-# 0B . ... : C-3 00 . ...
ROW 2B : C-2 07 . ... : C-2 09 . ... : ... .. . ... : D-# 14 . ... : ... .. . ...
ROW 2C : D-2 06 . ... : D-2 08 . ... : D-3 00 . ... : D-# 05 . ... : E-3 00 . ...
ROW 2D : D-2 07 . ... : D-2 09 . ... : ... .. . ... : F-# 0B . ... : C-3 00 . ...
ROW 2E : C-1 06 . ... : C-1 08 . ... : C-2 0D . ... : D-# 14 . ... : ... .. . ...
ROW 2F : ... .. . ... : ... .. . ... : ... .. . ... : F-# 0B . ... : ... .. . ...
ROW 30 : D-1 06 . ... : D-1 08 . ... : D-2 0D . ... : F-# 0B . ... : D-3 00 . ...
ROW 31 : ... .. . ... : ... .. . ... : ... .. . ... : F-# 0B . ... : D-3 00 . ...
ROW 32 : D-2 06 . ... : D-2 08 . ... : D-3 00 . ... : D-# 05 . ... : D-3 00 . ...
ROW 33 : ... .. . ... : ... .. . ... : ... .. . ... : F-# 0B . ... : D-3 00 . ...
ROW 34 : D-2 07 . ... : D-2 09 . ... : ... .. . ... : D-# 14 . ... : E-3 00 . ...
ROW 35 : D-2 06 . ... : D-2 08 . ... : D-3 00 . ... : D-# 05 . ... : ... .. . ...
ROW 36 : ... .. . ... : ... .. . ... : ... .. . ... : F-# 0B . ... : C-3 00 . ...
ROW 37 : D-2 07 . ... : D-2 09 . ... : ... .. . ... : D-# 14 . ... : C-3 00 . ...
ROW 38 : F-2 06 . ... : F-2 08 . ... : F-2 0D . ... : D-# 04 . ... : ... .. . ...
ROW 39 : ... .. . ... : ... .. . ... : ... .. . ... : ... .. . ... : ... .. . ...
ROW 3A : F-2 07 . ... : F-2 09 . ... : --- .. . ... : ... .. . ... : D-3 00 . ...
ROW 3B : ... .. . ... : ... .. . ... : ... .. . ... : ... .. . ... : D-3 00 . ...
ROW 3C : F-2 06 . ... : F-2 08 . ... : F-2 0D . ... : F-# 0B . ... : E-3 00 . ...
ROW 3D : ... .. . ... : ... .. . ... : ... .. . ... : F-# 0B . ... : ... .. . ...
ROW 3E : E-2 06 . ... : E-2 08 . ... : E-2 0D . ... : D-# 14 . ... : ... .. . ...
ROW 3F : ... .. . ... : ... .. . ... : ... .. . ... : F-# 0B . ... : ... .. . ...

PATTERN 03
ROW 00 : D-1 06 . ... : D-1 08 . ... : D-2 0D . ... : F-# 0B . ... : C-3 00 . ...
ROW 01 : ... .. . ... : ... .. . ... : ... .. . ... : F-# 0B . ... : ... .. . ...
ROW 02 : D-2 06 . ... : D-2 08 . ... : D-3 00 . ... : D-# 05 . ... : ... .. . ...
ROW 03 : ... .. . ... : ... .. . ... : ... .. . ... : F-# 0B . ... : ... .. . ...
ROW 04 : D-2 07 . ... : D-2 09 . ... : ... .. . ... : D-# 14 . ... : E-3 00 . ...
ROW 05 : D-2 06 . ... : D-2 08 . ... : D-3 00 . ... : D-# 05 . ... : ... .. . ...
ROW 06 : ... .. . ... : ... .. . ... : ... .. . ... : F-# 0B . ... : D-3 00 . ...
ROW 07 : D-2 07 . ... : D-2 09 . ... : ... .. . ... : D-# 14 . ... : C-3 00 . ...
ROW 08 : C-2 06 . ... : C-2 08 . ... : C-3 00 . ... : D-# 05 . ... : ... .. . ...
ROW 09 : D-2 06 . ... : D-2 08 . ... : D-3 00 . ... : D-# 05 . ... : ... .. . ...
ROW 0A : ... .. . ... : ... .. . ... : ... .. . ... : F-# 0B . ... : C-3 00 . ...
ROW 0B : C-2 07 . ... : C-2 09 . ... : ... .. . ... : D-# 14 . ... : ... .. . ...
ROW 0C : D-2 06 . ... : D-2 08 . ... : D-3 00 . ... : D-# 05 . ... : E-3 00 . ...
ROW 0D : D-2 07 . ... : D-2 09 . ... : ... .. . ... : F-# 0B . ... : C-3 00 . ...
ROW 0E : C-1 06 . ... : C-1 08 . ... : C-2 0D . ... : F-# 0B . ... : ... .. . ...
ROW 0F : ... .. . ... : ... .. . ... : ... .. . ... : F-# 0B . ... : C-3 00 . ...
ROW 10 : D-1 06 . ... : D-1 08 . ... : D-2 0D . ... : D-# 14 . ... : C-3 00 . ...
ROW 11 : ... .. . ... : ... .. . ... : ... .. . ... : F-# 0B . ... : ... .. . ...
ROW 12 : D-2 06 . ... : D-2 08 . ... : D-3 00 . ... : D-# 05 . ... : ... .. . ...
ROW 13 : ... .. . ... : ... .. . ... : ... .. . ... : F-# 0B . ... : ... .. . ...
ROW 14 : D-2 07 . ... : D-2 09 . ... : ... .. . ... : D-# 14 . ... : E-3 00 . ...
ROW 15 : D-2 06 . ... : D-2 08 . ... : D-3 00 . ... : D-# 05 . ... : ... .. . ...
ROW 16 : ... .. . ... : ... .. . ... : ... .. . ... : F-# 0B . ... : D-3 00 . ...
ROW 17 : D-2 07 . ... : D-2 09 . ... : ... .. . ... : D-# 14 . ... : C-3 00 . ...
ROW 18 : C-2 06 . ... : C-2 08 . ... : C-3 00 . ... : D-# 05 . ... : ... .. . ...
ROW 19 : D-2 06 . ... : D-2 08 . ... : D-3 00 . ... : D-# 05 . ... : ... .. . ...
ROW 1A : ... .. . ... : ... .. . ... : ... .. . ... : F-# 0B . ... : C-3 00 . ...
ROW 1B : C-2 07 . ... : C-2 09 . ... : ... .. . ... : D-# 14 . ... : ... .. . ...
ROW 1C : F-2 06 . ... : F-2 08 . ... : F-3 00 . ... : C-# 04 . ... : E-3 00 . ...
ROW 1D : D-2 07 . ... : D-2 09 . ... : ... .. . ... : ... .. . ... : ... .. . ...
ROW 1E : E-2 06 . ... : E-2 08 . ... : E-3 00 . ... : F-# 0B . ... : D-3 00 . ...
ROW 1F : F-2 07 . ... : F-2 09 . ... : ... .. . ... : F-# 0B . ... : D-3 00 . ...
ROW 20 : D-1 06 . ... : D-1 08 . ... : D-2 0D . ... : B-# 14 . ... : C-3 00 . ...
ROW 21 : E-2 07 . ... : E-2 09 . ... : ... .. . ... : F-# 0B . ... : ... .. . ...
ROW 22 : D-2 06 . ... : D-2 08 . ... : D-3 00 . ... : D-# 05 . ... : ... .. . ...
ROW 23 : ... .. . ... : ... .. . ... : ... .. . ... : F-# 0B . ... : ... .. . ...
ROW 24 : D-2 07 . ... : D-2 09 . ... : ... .. . ... : D-# 14 . ... : E-3 00 . ...
ROW 25 : D-2 06 . ... : D-2 08 . ... : D-3 00 . ... : D-# 05 . ... : ... .. . ...
ROW 26 : ... .. . ... : ... .. . ... : ... .. . ... : F-# 0B . ... : D-3 00 . ...
ROW 27 : D-2 07 . ... : D-2 09 . ... : ... .. . ... : D-# 14 . ... : C-3 00 . ...
ROW 28 : C-2 06 . ... : C-2 08 . ... : C-3 00 . ... : D-# 05 . ... : ... .. . ...
ROW 29 : D-2 06 . ... : D-2 08 . ... : D-3 00 . ... : D-# 05 . ... : ... .. . ...
ROW 2A : ... .. . ... : ... .. . ... : ... .. . ... : F-# 0B . ... : D-3 00 . ...
ROW 2B : C-2 07 . ... : C-2 09 . ... : ... .. . ... : D-# 14 . ... : D-3 00 . ...
ROW 2C : D-2 06 . ... : D-2 08 . ... : D-3 00 . ... : D-# 05 . ... : E-3 00 . ...
ROW 2D : D-2 07 . ... : D-2 09 . ... : ... .. . ... : F-# 0B . ... : ... .. . ...
ROW 2E : C-1 06 . ... : C-1 08 . ... : C-2 0D . ... : D-# 14 . ... : C-3 00 . ...
ROW 2F : ... .. . ... : ... .. . ... : ... .. . ... : F-# 0B . ... : ... .. . ...
ROW 30 : D-1 06 . ... : D-1 08 . ... : D-2 0D . ... : F-# 0B . ... : E-3 00 . ...
ROW 31 : ... .. . ... : ... .. . ... : ... .. . ... : ... .. . ... : ... .. . ...
ROW 32 : D-2 06 . ... : D-2 08 . ... : ... .. . ... : D-# 05 . ... : C-3 00 . ...
ROW 33 : ... .. . ... : ... .. . ... : ... .. . ... : ... .. . ... : ... .. . ...
ROW 34 : D-2 07 . ... : D-2 09 . ... : ... .. . ... : D-# 14 . ... : C-3 00 . ...
ROW 35 : D-2 06 . ... : D-2 08 . ... : ... .. . ... : D-# 05 . ... : ... .. . ...
ROW 36 : ... .. . ... : ... .. . ... : ... .. . ... : ... .. . ... : C-3 00 . ...
ROW 37 : D-2 07 . ... : D-2 09 . ... : ... .. . ... : D-# 14 . ... : ... .. . ...
ROW 38 : F-2 06 . ... : F-2 08 . ... : B-1 0D . ... : D-# 04 . ... : E-3 00 . ...
ROW 39 : ... .. . ... : ... .. . ... : G-1 0D . ... : ... .. . ... : E-3 00 . ...
ROW 3A : F-2 07 . ... : F-2 09 . ... : E-1 0D . ... : ... .. . ... : ... .. . ...
ROW 3B : ... .. . ... : ... .. . ... : C-1 0D . ... : ... .. . ... : E-3 00 . ...
ROW 3C : F-2 06 . ... : F-2 08 . ... : --- 0D . ... : C-# 04 . ... : E-3 00 . ...
ROW 3D : ... .. . ... : ... .. . ... : ... .. . ... : B-# 04 . ... : E-3 00 . ...
ROW 3E : E-2 06 . ... : E-2 08 . ... : ... .. . ... : 9-# 04 . ... : E-3 00 . ...
ROW 3F : ... .. . ... : ... .. . ... : ... .. . ... : 7-# 04 . ... : E-3 00 . ...

PATTERN 04
ROW 00 : D-2 06 . ... : D-2 08 . ... : D-2 0D . ... : D-# 0B . ... : C-3 00 . ...
ROW 01 : ... .. . ... : ... .. . ... : ... .. . ... : F-# 0B . ... : ... .. . ...
ROW 02 : D-2 07 . ... : D-2 09 . ... : D-3 00 . ... : E-# 0B . ... : ... .. . ...
ROW 03 : ... .. . ... : ... .. . ... : ... .. . ... : F-# 0B . ... : ... .. . ...
ROW 04 : D-2 06 . ... : D-3 08 . ... : ... .. . ... : D-# 0B . ... : E-3 00 . ...
ROW 05 : A-2 06 . ... : A-3 08 . ... : D-3 00 . ... : F-# 0B . ... : ... .. . ...
ROW 06 : D-3 06 . ... : D-4 08 . ... : ... .. . ... : E-# 0B . ... : ... .. . ...
ROW 07 : G-3 06 . ... : G-4 08 . ... : ... .. . ... : F-# 0B . ... : C-3 00 . ...
ROW 08 : A-3 06 . ... : A-4 08 . ... : C-3 00 . ... : D-# 0B . ... : C-3 00 . ...
ROW 09 : D-3 0A . ... : D-4 09 . ... : D-3 00 . ... : F-# 0B . ... : ... .. . ...
ROW 0A : F-3 0A . ... : G-4 09 . ... : ... .. . ... : E-# 0B . ... : ... .. . ...
ROW 0B : A-3 0A . ... : A-4 09 . ... : ... .. . ... : F-# 0B . ... : ... .. . ...
ROW 0C : C-4 0A . ... : D-3 07 . ... : D-3 00 . ... : D-# 0B . ... : E-3 00 . ...
ROW 0D : ... .. . ... : G-3 07 . ... : ... .. . ... : F-# 0B . ... : ... .. . ...
ROW 0E : A-3 0A . ... : C-4 11 . ... : C-2 0D . ... : C-# 05 . ... : C-3 00 . ...
ROW 0F : ... .. . ... : ... .. . ... : ... .. . ... : C-# 05 . ... : ... .. . ...
ROW 10 : ... .. . ... : A-3 11 . ... : D-2 0D . ... : C-# 14 . ... : C-3 00 . ...
ROW 11 : ... .. . ... : ... .. . ... : ... .. . ... : C-# 14 . ... : ... .. . ...
ROW 12 : ... .. . ... : ... .. . ... : D-3 00 . ... : E-# 0B . ... : ... .. . ...
ROW 13 : ... .. . ... : ... .. . ... : ... .. . ... : F-# 0B . ... : ... .. . ...
ROW 14 : C-4 0A . ... : ... .. . ... : ... .. . ... : D-# 0B . ... : E-3 00 . ...
ROW 15 : ... .. . ... : ... .. . ... : D-3 00 . ... : F-# 0B . ... : ... .. . ...
ROW 16 : ... .. . ... : C-4 11 . ... : ... .. . ... : E-# 0B . ... : ... .. . ...
ROW 17 : ... .. . ... : ... .. . ... : ... .. . ... : F-# 0B . ... : C-3 00 . ...
ROW 18 : ... .. . ... : ... .. . ... : C-3 00 . ... : D-# 0B . ... : C-3 00 . ...
ROW 19 : ... .. . ... : ... .. . ... : D-3 00 . ... : F-# 0B . ... : ... .. . ...
ROW 1A : ... .. . ... : ... .. . ... : ... .. . ... : E-# 0B . ... : ... .. . ...
ROW 1B : ... .. . ... : ... .. . ... : ... .. . ... : F-# 0B . ... : ... .. . ...
ROW 1C : ... .. . ... : ... .. . ... : F-3 00 . ... : C-# 05 . ... : E-3 00 . ...
ROW 1D : ... .. . ... : ... .. . ... : ... .. . ... : F-# 0B . ... : ... .. . ...
ROW 1E : ... .. . ... : ... .. . ... : E-3 00 . ... : B-# 05 . ... : ... .. . ...
ROW 1F : ... .. . ... : ... .. . ... : ... .. . ... : F-# 0B . ... : ... .. . ...
ROW 20 : ... .. . ... : ... .. . ... : F-2 0D . ... : B-# 14 . ... : C-3 00 . ...
ROW 21 : ... .. . ... : ... .. . ... : ... .. . ... : F-# 0B . ... : ... .. . ...
ROW 22 : ... .. . ... : ... .. . ... : F-3 00 . ... : E-# 0B . ... : ... .. . ...
ROW 23 : ... .. . ... : ... .. . ... : ... .. . ... : F-# 0B . ... : ... .. . ...
ROW 24 : A-3 06 . ... : A-4 08 . ... : ... .. . ... : D-# 0B . ... : E-3 00 . ...
ROW 25 : F-3 06 . ... : F-4 08 . ... : F-3 00 . ... : F-# 0B . ... : ... .. . ...
ROW 26 : D-3 06 . ... : D-4 08 . ... : ... .. . ... : E-# 0B . ... : ... .. . ...
ROW 27 : F-3 06 . ... : F-4 08 . ... : ... .. . ... : F-# 0B . ... : C-3 00 . ...
ROW 28 : A-3 06 . ... : A-4 08 . ... : E-3 00 . ... : D-# 0B . ... : C-3 00 . ...
ROW 29 : D-3 07 . ... : D-4 09 . ... : F-3 00 . ... : F-# 0B . ... : ... .. . ...
ROW 2A : D-3 0A . ... : F-4 09 . ... : ... .. . ... : E-# 0B . ... : ... .. . ...
ROW 2B : F-3 0A . ... : A-4 09 . ... : ... .. . ... : F-# 0B . ... : ... .. . ...
ROW 2C : A-3 0A . ... : D-4 07 . ... : F-3 00 . ... : D-# 0B . ... : E-3 00 . ...
ROW 2D : ... .. . ... : F-4 07 . ... : ... .. . ... : F-# 0B . ... : ... .. . ...
ROW 2E : B-3 0A . ... : A-3 11 . ... : F-2 0D . ... : C-# 05 . ... : C-3 00 . ...
ROW 2F : ... .. . ... : ... .. . ... : ... .. . ... : C-# 05 . ... : ... .. . ...
ROW 30 : ... .. . ... : B-3 11 . ... : G-2 0D . ... : C-# 14 . ... : C-3 00 . ...
ROW 31 : ... .. . ... : ... .. . ... : ... .. . ... : C-# 14 . ... : ... .. . ...
ROW 32 : ... .. . ... : ... .. . ... : G-3 00 . ... : E-# 0B . ... : ... .. . ...
ROW 33 : ... .. . ... : ... .. . ... : ... .. . ... : F-# 0B . ... : ... .. . ...
ROW 34 : ... .. . ... : ... .. . ... : ... .. . ... : D-# 0B . ... : E-3 00 . ...
ROW 35 : ... .. . ... : ... .. . ... : G-3 00 . ... : F-# 0B . ... : ... .. . ...
ROW 36 : ... .. . ... : ... .. . ... : ... .. . ... : E-# 0B . ... : ... .. . ...
ROW 37 : ... .. . ... : ... .. . ... : ... .. . ... : F-# 0B . ... : C-3 00 . ...
ROW 38 : ... .. . ... : ... .. . ... : G-3 00 . ... : D-# 0B . ... : C-3 00 . ...
ROW 39 : ... .. . ... : ... .. . ... : ... .. . ... : F-# 0B . ... : ... .. . ...
ROW 3A : ... .. . ... : ... .. . ... : ... .. . ... : E-# 0B . ... : ... .. . ...
ROW 3B : ... .. . ... : ... .. . ... : ... .. . ... : F-# 0B . ... : ... .. . ...
ROW 3C : G-2 06 . ... : G-2 08 . ... : G-2 0D . ... : F-# 0B . ... : E-3 00 . ...
ROW 3D : ... .. . ... : ... .. . ... : ... .. . ... : F-# 0B . ... : ... .. . ...
ROW 3E : F-2 06 . ... : F-2 08 . ... : F-2 0D . ... : F-# 0B . ... : ... .. . ...
ROW 3F : ... .. . ... : ... .. . ... : ... .. . ... : F-# 0B . ... : ... .. . ...

PATTERN 05
ROW 00 : E-3 0A . ... : A#1 06 . ... : A#1 0D . ... : B-# 14 . ... : C-3 00 . ...
ROW 01 : F-3 0A . ... : D-2 06 . ... : ... .. . ... : F-# 0B . ... : ... .. . ...
ROW 02 : ... .. . ... : F-2 06 . ... : A#2 00 . ... : E-# 0B . ... : C-3 00 . ...
ROW 03 : ... .. . ... : A-2 06 . ... : ... .. . ... : F-# 0B . ... : ... .. . ...
ROW 04 : ... .. . ... : C-3 06 . ... : ... .. . ... : D-# 0B . ... : E-3 00 . ...
ROW 05 : ... .. . ... : A-2 06 . ... : A#2 00 . ... : F-# 0B . ... : ... .. . ...
ROW 06 : ... .. . ... : F-2 06 . ... : ... .. . ... : E-# 0B . ... : D-3 00 . ...
ROW 07 : ... .. . ... : D-2 06 . ... : ... .. . ... : F-# 0B . ... : C-3 00 . ...
ROW 08 : F-3 11 . ... : A#1 06 . ... : G#2 00 . ... : D-# 0B . ... : ... .. . ...
ROW 09 : ... .. . ... : D-2 06 . ... : A#2 00 . ... : F-# 0B . ... : ... .. . ...
ROW 0A : ... .. . ... : F-2 06 . ... : ... .. . ... : E-# 0B . ... : D-3 00 . ...
ROW 0B : ... .. . ... : A-2 06 . ... : ... .. . ... : F-# 0B . ... : ... .. . ...
ROW 0C : C-3 0A . ... : C-3 06 . ... : A#2 00 . ... : D-# 0B . ... : E-3 00 . ...
ROW 0D : ... .. . ... : A-2 06 . ... : ... .. . ... : F-# 0B . ... : C-3 00 . ...
ROW 0E : A-2 0A . ... : F-2 06 . ... : G#1 0D . ... : C-# 05 . ... : ... .. . ...
ROW 0F : ... .. . ... : D-2 06 . ... : ... .. . ... : C-# 05 . ... : C-3 00 . ...
ROW 10 : ... .. . ... : C-2 06 . ... : C-2 0D . ... : C-# 14 . ... : C-3 00 . ...
ROW 11 : ... .. . ... : E-2 06 . ... : ... .. . ... : C-# 14 . ... : ... .. . ...
ROW 12 : ... .. . ... : G-2 06 . ... : C-3 00 . ... : E-# 0B . ... : C-3 00 . ...
ROW 13 : ... .. . ... : C-3 06 . ... : ... .. . ... : F-# 0B . ... : ... .. . ...
ROW 14 : C-3 11 . ... : E-3 06 . ... : ... .. . ... : D-# 0B . ... : E-3 00 . ...
ROW 15 : ... .. . ... : C-3 06 . ... : C-3 00 . ... : F-# 0B . ... : ... .. . ...
ROW 16 : A-2 11 . ... : G-2 06 . ... : ... .. . ... : E-# 0B . ... : D-3 00 . ...
ROW 17 : ... .. . ... : E-2 06 . ... : ... .. . ... : F-# 0B . ... : C-3 00 . ...
ROW 18 : ... .. . ... : C-2 06 . ... : A#2 00 . ... : D-# 0B . ... : ... .. . ...
ROW 19 : ... .. . ... : E-2 06 . ... : C-3 00 . ... : F-# 0B . ... : ... .. . ...
ROW 1A : A-2 0A . ... : A-3 08 . ... : ... .. . ... : E-# 0B . ... : C-3 00 . ...
ROW 1B : C-3 0A . ... : C-4 08 . ... : ... .. . ... : F-# 0B . ... : ... .. . ...
ROW 1C : F-3 0A . ... : F-4 08 . ... : A#1 0D . ... : C-# 05 . ... : E-3 00 . ...
ROW 1D : A-2 0A . ... : A-3 08 . ... : ... .. . ... : F-# 0B . ... : ... .. . ...
ROW 1E : C-3 0A . ... : C-4 08 . ... : C-2 0D . ... : B-# 05 . ... : ... .. . ...
ROW 1F : F-3 0A . ... : F-4 08 . ... : ... .. . ... : F-# 0B . ... : ... .. . ...
ROW 20 : G-3 0A . ... : A-3 09 . ... : D-2 0D . ... : B-# 14 . ... : C-3 00 . ...
ROW 21 : ... .. . ... : C-4 09 . ... : ... .. . ... : F-# 0B . ... : ... .. . ...
ROW 22 : ... .. . ... : F-4 09 . ... : D-3 00 . ... : E-# 0B . ... : C-3 00 . ...
ROW 23 : ... .. . ... : D-3 06 . ... : ... .. . ... : F-# 0B . ... : ... .. . ...
ROW 24 : ... .. . ... : F-3 06 . ... : ... .. . ... : D-# 0B . ... : E-3 00 . ...
ROW 25 : ... .. . ... : D-3 06 . ... : D-3 00 . ... : F-# 0B . ... : ... .. . ...
ROW 26 : ... .. . ... : A-2 06 . ... : ... .. . ... : E-# 0B . ... : D-3 00 . ...
ROW 27 : ... .. . ... : F-2 06 . ... : ... .. . ... : F-# 0B . ... : C-3 00 . ...
ROW 28 : ... .. . ... : D-2 06 . ... : C-3 00 . ... : D-# 0B . ... : ... .. . ...
ROW 29 : ... .. . ... : F-2 06 . ... : D-3 00 . ... : F-# 0B . ... : ... .. . ...
ROW 2A : ... .. . ... : A-2 06 . ... : ... .. . ... : E-# 0B . ... : C-3 00 . ...
ROW 2B : ... .. . ... : D-3 06 . ... : ... .. . ... : F-# 0B . ... : ... .. . ...
ROW 2C : A-3 0A . ... : F-3 06 . ... : D-3 00 . ... : D-# 0B . ... : E-3 00 . ...
ROW 2D : ... .. . ... : D-3 06 . ... : ... .. . ... : F-# 0B . ... : C-3 00 . ...
ROW 2E : ... .. . ... : A-2 06 . ... : C-2 0D . ... : C-# 05 . ... : ... .. . ...
ROW 2F : ... .. . ... : F-2 06 . ... : ... .. . ... : C-# 05 . ... : C-3 00 . ...
ROW 30 : ... .. . ... : D-2 06 . ... : F-2 0D . ... : C-# 14 . ... : C-3 00 . ...
ROW 31 : ... .. . ... : F-2 06 . ... : ... .. . ... : C-# 14 . ... : ... .. . ...
ROW 32 : ... .. . ... : A-2 06 . ... : F-3 00 . ... : E-# 0B . ... : C-3 00 . ...
ROW 33 : ... .. . ... : D-3 06 . ... : ... .. . ... : F-# 0B . ... : ... .. . ...
ROW 34 : ... .. . ... : F-3 06 . ... : ... .. . ... : D-# 0B . ... : E-3 00 . ...
ROW 35 : ... .. . ... : D-3 06 . ... : F-3 00 . ... : F-# 0B . ... : ... .. . ...
ROW 36 : ... .. . ... : A-2 06 . ... : ... .. . ... : E-# 0B . ... : D-3 00 . ...
ROW 37 : ... .. . ... : F-2 06 . ... : ... .. . ... : F-# 0B . ... : C-3 00 . ...
ROW 38 : A-3 11 . ... : D-2 06 . ... : E-3 00 . ... : D-# 0B . ... : ... .. . ...
ROW 39 : ... .. . ... : F-2 06 . ... : F-3 00 . ... : F-# 0B . ... : ... .. . ...
ROW 3A : ... .. . ... : A-2 06 . ... : ... .. . ... : E-# 0B . ... : C-3 00 . ...
ROW 3B : ... .. . ... : D-3 06 . ... : ... .. . ... : F-# 0B . ... : ... .. . ...
ROW 3C : F-3 0A . ... : F-3 06 . ... : F-3 00 . ... : C-# 05 . ... : E-3 00 . ...
ROW 3D : E-3 0A . ... : D-3 06 . ... : ... .. . ... : F-# 0B . ... : ... .. . ...
ROW 3E : D-3 0A . ... : A-2 06 . ... : E-3 00 . ... : B-# 05 . ... : ... .. . ...
ROW 3F : E-3 0A . ... : F-2 06 . ... : ... .. . ... : F-# 0B . ... : ... .. . ...

PATTERN 06
ROW 00 : D-3 0A . ... : A#1 06 . ... : A#1 0D . ... : B-# 14 . ... : C-3 00 . ...
ROW 01 : ... .. . ... : D-2 06 . ... : ... .. . ... : F-# 0B . ... : ... .. . ...
ROW 02 : ... .. . ... : F-2 06 . ... : A#2 00 . ... : E-# 0B . ... : C-3 00 . ...
ROW 03 : ... .. . ... : A-2 06 . ... : ... .. . ... : F-# 0B . ... : ... .. . ...
ROW 04 : ... .. . ... : C-3 06 . ... : ... .. . ... : D-# 0B . ... : E-3 00 . ...
ROW 05 : ... .. . ... : A-2 06 . ... : A#2 00 . ... : F-# 0B . ... : ... .. . ...
ROW 06 : ... .. . ... : F-2 06 . ... : ... .. . ... : E-# 0B . ... : D-3 00 . ...
ROW 07 : ... .. . ... : D-2 06 . ... : ... .. . ... : F-# 0B . ... : C-3 00 . ...
ROW 08 : D-3 11 . ... : A#1 06 . ... : G#2 00 . ... : D-# 0B . ... : ... .. . ...
ROW 09 : ... .. . ... : D-2 06 . ... : A#2 00 . ... : F-# 0B . ... : ... .. . ...
ROW 0A : ... .. . ... : F-2 06 . ... : ... .. . ... : E-# 0B . ... : D-3 00 . ...
ROW 0B : E-3 0A . ... : A-2 06 . ... : ... .. . ... : F-# 0B . ... : ... .. . ...
ROW 0C : F-3 0A . ... : C-3 06 . ... : A#2 00 . ... : D-# 0B . ... : E-3 00 . ...
ROW 0D : ... .. . ... : A-2 06 . ... : ... .. . ... : F-# 0B . ... : C-3 00 . ...
ROW 0E : E-3 0A . ... : F-2 06 . ... : G#1 0D . ... : C-# 05 . ... : ... .. . ...
ROW 0F : ... .. . ... : D-2 06 . ... : ... .. . ... : C-# 05 . ... : C-3 00 . ...
ROW 10 : ... .. . ... : C-2 06 . ... : C-2 0D . ... : C-# 14 . ... : C-3 00 . ...
ROW 11 : ... .. . ... : E-2 06 . ... : ... .. . ... : C-# 14 . ... : ... .. . ...
ROW 12 : ... .. . ... : G-2 06 . ... : C-3 00 . ... : E-# 0B . ... : C-3 00 . ...
ROW 13 : E-3 11 . ... : C-3 06 . ... : ... .. . ... : F-# 0B . ... : ... .. . ...
ROW 14 : F-3 11 . ... : E-3 06 . ... : ... .. . ... : D-# 0B . ... : E-3 00 . ...
ROW 15 : ... .. . ... : C-3 06 . ... : C-3 00 . ... : F-# 0B . ... : ... .. . ...
ROW 16 : E-3 11 . ... : G-2 06 . ... : ... .. . ... : E-# 0B . ... : D-3 00 . ...
ROW 17 : ... .. . ... : E-2 06 . ... : ... .. . ... : F-# 0B . ... : C-3 00 . ...
ROW 18 : ... .. . ... : C-2 06 . ... : A#2 00 . ... : D-# 0B . ... : ... .. . ...
ROW 19 : ... .. . ... : E-2 06 . ... : C-3 00 . ... : F-# 0B . ... : ... .. . ...
ROW 1A : ... .. . ... : G-2 06 . ... : ... .. . ... : E-# 0B . ... : C-3 00 . ...
ROW 1B : D-3 0A . ... : C-3 06 . ... : ... .. . ... : F-# 0B . ... : ... .. . ...
ROW 1C : E-3 0A . ... : E-3 06 . ... : A#1 0D . ... : C-# 05 . ... : E-3 00 . ...
ROW 1D : ... .. . ... : C-3 06 . ... : ... .. . ... : F-# 0B . ... : ... .. . ...
ROW 1E : A-3 0A . ... : G-2 06 . ... : C-2 0D . ... : B-# 05 . ... : ... .. . ...
ROW 1F : ... .. . ... : E-2 06 . ... : ... .. . ... : F-# 0B . ... : ... .. . ...
ROW 20 : ... .. . ... : D-2 06 . ... : D-2 0D . ... : B-# 14 . ... : C-3 00 . ...
ROW 21 : ... .. . ... : F-2 06 . ... : ... .. . ... : F-# 0B . ... : ... .. . ...
ROW 22 : ... .. . ... : A-2 06 . ... : D-3 00 . ... : E-# 0B . ... : C-3 00 . ...
ROW 23 : ... .. . ... : D-3 06 . ... : ... .. . ... : F-# 0B . ... : ... .. . ...
ROW 24 : ... .. . ... : F-3 06 . ... : ... .. . ... : D-# 0B . ... : E-3 00 . ...
ROW 25 : ... .. . ... : D-3 06 . ... : D-3 00 . ... : F-# 0B . ... : ... .. . ...
ROW 26 : ... .. . ... : A-2 06 . ... : ... .. . ... : E-# 0B . ... : D-3 00 . ...
ROW 27 : ... .. . ... : F-2 06 . ... : ... .. . ... : F-# 0B . ... : C-3 00 . ...
ROW 28 : A-3 11 . ... : D-2 06 . ... : C-3 00 . ... : D-# 0B . ... : ... .. . ...
ROW 29 : ... .. . ... : F-2 06 . ... : D-3 00 . ... : F-# 0B . ... : ... .. . ...
ROW 2A : ... .. . ... : A-2 06 . ... : ... .. . ... : E-# 0B . ... : C-3 00 . ...
ROW 2B : ... .. . ... : D-3 06 . ... : ... .. . ... : F-# 0B . ... : ... .. . ...
ROW 2C : A-3 0A . ... : A-3 08 . ... : D-3 00 . ... : D-# 0B . ... : E-3 00 . ...
ROW 2D : A-2 07 . ... : A-3 09 . ... : ... .. . ... : F-# 0B . ... : C-3 00 . ...
ROW 2E : C-4 0A . ... : C-4 08 . ... : C-2 0D . ... : C-# 05 . ... : ... .. . ...
ROW 2F : C-3 07 . ... : C-4 09 . ... : ... .. . ... : C-# 05 . ... : C-3 00 . ...
ROW 30 : ... .. . ... : D-2 06 . ... : D-2 0D . ... : C-# 14 . ... : C-3 00 . ...
ROW 31 : ... .. . ... : F-2 06 . ... : ... .. . ... : C-# 14 . ... : ... .. . ...
ROW 32 : --- .. . ... : A-2 06 . ... : D-3 00 . ... : E-# 0B . ... : C-3 00 . ...
ROW 33 : ... .. . ... : D-3 06 . ... : ... .. . ... : F-# 0B . ... : ... .. . ...
ROW 34 : A-3 0A . ... : A-3 08 . ... : ... .. . ... : D-# 0B . ... : E-3 00 . ...
ROW 35 : A-2 07 . ... : A-3 09 . ... : D-3 00 . ... : F-# 0B . ... : ... .. . ...
ROW 36 : ... .. . ... : A-2 06 . ... : ... .. . ... : E-# 0B . ... : D-3 00 . ...
ROW 37 : ... .. . ... : F-2 06 . ... : ... .. . ... : F-# 0B . ... : C-3 00 . ...
ROW 38 : G-3 0A . ... : G-3 08 . ... : C-3 00 . ... : D-# 0B . ... : ... .. . ...
ROW 39 : G-2 07 . ... : G-3 09 . ... : D-3 00 . ... : F-# 0B . ... : D-3 00 . ...
ROW 3A : F-3 0A . ... : F-3 08 . ... : ... .. . ... : E-# 0B . ... : D-3 00 . ...
ROW 3B : F-2 07 . ... : F-3 09 . ... : ... .. . ... : F-# 0B . ... : ... .. . ...
ROW 3C : ... .. . ... : F-3 06 . ... : D-3 00 . ... : C-# 05 . ... : E-3 00 . ...
ROW 3D : ... .. . ... : D-3 06 . ... : ... .. . ... : F-# 0B . ... : ... .. . ...
ROW 3E : ... .. . ... : A-2 06 . ... : ... .. . ... : B-# 05 . ... : E-3 00 . ...
ROW 3F : ... .. . ... : F-2 06 . ... : ... .. . ... : F-# 0B . ... : E-3 00 . ...

PATTERN 07
ROW 00 : F-3 0A . ... : A#1 06 . ... : A#1 0D . ... : B-# 14 . ... : C-3 00 . ...
ROW 01 : ... .. . ... : D-2 06 . ... : ... .. . ... : F-# 0B . ... : ... .. . ...
ROW 02 : ... .. . ... : F-2 06 . ... : A#2 00 . ... : E-# 0B . ... : C-3 00 . ...
ROW 03 : ... .. . ... : A-2 06 . ... : ... .. . ... : F-# 0B . ... : ... .. . ...
ROW 04 : ... .. . ... : C-3 06 . ... : ... .. . ... : D-# 0B . ... : E-3 00 . ...
ROW 05 : ... .. . ... : A-2 06 . ... : A#2 00 . ... : F-# 0B . ... : ... .. . ...
ROW 06 : ... .. . ... : F-2 06 . ... : ... .. . ... : E-# 0B . ... : D-3 00 . ...
ROW 07 : ... .. . ... : D-2 06 . ... : ... .. . ... : F-# 0B . ... : C-3 00 . ...
ROW 08 : ... .. . ... : A#1 06 . ... : G#2 00 . ... : D-# 0B . ... : ... .. . ...
ROW 09 : ... .. . ... : D-2 06 . ... : A#2 00 . ... : F-# 0B . ... : ... .. . ...
ROW 0A : ... .. . ... : F-2 06 . ... : ... .. . ... : E-# 0B . ... : C-3 00 . ...
ROW 0B : B-2 0A . ... : A-2 06 . ... : ... .. . ... : F-# 0B . ... : ... .. . ...
ROW 0C : C-3 0A . ... : C-3 06 . ... : A#2 00 . ... : D-# 0B . ... : E-3 00 . ...
ROW 0D : ... .. . ... : A-2 06 . ... : ... .. . ... : F-# 0B . ... : C-3 00 . ...
ROW 0E : G-3 0A . ... : F-2 06 . ... : G#1 0D . ... : C-# 05 . ... : ... .. . ...
ROW 0F : ... .. . ... : D-2 06 . ... : ... .. . ... : C-# 05 . ... : C-3 00 . ...
ROW 10 : ... .. . ... : C-2 06 . ... : C-2 0D . ... : C-# 14 . ... : C-3 00 . ...
ROW 11 : ... .. . ... : E-2 06 . ... : ... .. . ... : C-# 14 . ... : ... .. . ...
ROW 12 : ... .. . ... : G-2 06 . ... : C-3 00 . ... : E-# 0B . ... : C-3 00 . ...
ROW 13 : B-2 11 . ... : C-3 06 . ... : ... .. . ... : F-# 0B . ... : ... .. . ...
ROW 14 : C-3 11 . ... : E-3 06 . ... : ... .. . ... : D-# 0B . ... : E-3 00 . ...
ROW 15 : ... .. . ... : C-3 06 . ... : C-3 00 . ... : F-# 0B . ... : ... .. . ...
ROW 16 : G-3 11 . ... : G-2 06 . ... : ... .. . ... : E-# 0B . ... : D-3 00 . ...
ROW 17 : ... .. . ... : E-2 06 . ... : ... .. . ... : F-# 0B . ... : C-3 00 . ...
ROW 18 : ... .. . ... : C-2 06 . ... : A#2 00 . ... : D-# 0B . ... : ... .. . ...
ROW 19 : ... .. . ... : E-2 06 . ... : C-3 00 . ... : F-# 0B . ... : ... .. . ...
ROW 1A : ... .. . ... : G-2 06 . ... : ... .. . ... : E-# 0B . ... : C-3 00 . ...
ROW 1B : G-2 0A . ... : C-3 06 . ... : ... .. . ... : F-# 0B . ... : ... .. . ...
ROW 1C : A-2 0A . ... : E-3 06 . ... : A#1 0D . ... : C-# 05 . ... : E-3 00 . ...
ROW 1D : ... .. . ... : C-3 06 . ... : ... .. . ... : F-# 0B . ... : ... .. . ...
ROW 1E : D-3 0A . ... : G-2 06 . ... : C-2 0D . ... : B-# 05 . ... : ... .. . ...
ROW 1F : ... .. . ... : E-2 06 . ... : ... .. . ... : F-# 0B . ... : ... .. . ...
ROW 20 : ... .. . ... : D-2 06 . ... : D-2 0D . ... : B-# 14 . ... : C-3 00 . ...
ROW 21 : ... .. . ... : F-2 06 . ... : ... .. . ... : F-# 0B . ... : ... .. . ...
ROW 22 : ... .. . ... : A-2 06 . ... : D-3 00 . ... : E-# 0B . ... : C-3 00 . ...
ROW 23 : ... .. . ... : D-3 06 . ... : ... .. . ... : F-# 0B . ... : ... .. . ...
ROW 24 : ... .. . ... : F-3 06 . ... : ... .. . ... : D-# 0B . ... : E-3 00 . ...
ROW 25 : ... .. . ... : D-3 06 . ... : D-3 00 . ... : F-# 0B . ... : ... .. . ...
ROW 26 : ... .. . ... : A-2 06 . ... : ... .. . ... : E-# 0B . ... : D-3 00 . ...
ROW 27 : ... .. . ... : F-2 06 . ... : ... .. . ... : F-# 0B . ... : D-3 00 . ...
ROW 28 : ... .. . ... : D-2 06 . ... : C-3 00 . ... : D-# 0B . ... : ... .. . ...
ROW 29 : ... .. . ... : F-2 06 . ... : D-3 00 . ... : F-# 0B . ... : ... .. . ...
ROW 2A : ... .. . ... : A-2 06 . ... : ... .. . ... : E-# 0B . ... : D-3 00 . ...
ROW 2B : ... .. . ... : D-3 06 . ... : ... .. . ... : F-# 0B . ... : ... .. . ...
ROW 2C : ... .. . ... : F-3 06 . ... : D-3 00 . ... : D-# 0B . ... : E-3 00 . ...
ROW 2D : ... .. . ... : D-3 06 . ... : ... .. . ... : F-# 0B . ... : ... .. . ...
ROW 2E : ... .. . ... : A-2 06 . ... : C-2 0D . ... : C-# 05 . ... : C-3 00 . ...
ROW 2F : ... .. . ... : F-2 06 . ... : ... .. . ... : C-# 05 . ... : ... .. . ...
ROW 30 : ... .. . ... : D-2 06 . ... : D-2 0D . ... : D-# 03 . ... : C-3 00 . ...
ROW 31 : ... .. . ... : F-2 06 . ... : ... .. . ... : ... .. . ... : ... .. . ...
ROW 32 : ... .. . ... : A-2 06 . ... : ... .. . ... : ... .. . ... : D-3 00 . ...
ROW 33 : ... .. . ... : D-3 06 . ... : ... .. . ... : ... .. . ... : D-3 00 . ...
ROW 34 : ... .. . ... : F-3 06 . ... : A-1 0D . ... : ... .. . ... : ... .. . ...
ROW 35 : ... .. . ... : D-3 06 . ... : F-1 0D . ... : ... .. . ... : ... .. . ...
ROW 36 : ... .. . ... : A-2 06 . ... : D-1 0D . ... : ... .. . ... : D-3 00 . ...
ROW 37 : ... .. . ... : F-2 06 . ... : --- .. . ... : ... .. . ... : ... .. . ...
ROW 38 : ... .. . ... : D-3 06 . ... : ... .. . ... : ... .. . ... : D-3 00 . ...
ROW 39 : ... .. . ... : ... .. . ... : ... .. . ... : ... .. . ... : D-3 00 . ...
ROW 3A : ... .. . ... : D-3 07 . ... : ... .. . ... : ... .. . ... : ... .. . ...
ROW 3B : ... .. . ... : ... .. . ... : ... .. . ... : ... .. . ... : ... .. . ...
ROW 3C : ... .. . ... : --- .. . ... : ... .. . ... : ... .. . ... : E-3 00 . ...
ROW 3D : ... .. . ... : ... .. . ... : ... .. . ... : ... .. . ... : ... .. . ...
ROW 3E : ... .. . ... : ... .. . ... : ... .. . ... : ... .. . ... : ... .. . ...
ROW 3F : ... .. . ... : ... .. . ... : ... .. . ... : ... .. . ... : ... .. . ...

PATTERN 08
ROW 00 : D-2 06 . ... : D-2 08 . ... : D-2 0D . ... : D-# 0B . ... : C-3 00 . ...
ROW 01 : ... .. . ... : ... .. . ... : ... .. . ... : F-# 0B . ... : ... .. . ...
ROW 02 : D-2 07 . ... : D-2 09 . ... : D-3 00 . ... : E-# 0B . ... : ... .. . ...
ROW 03 : ... .. . ... : ... .. . ... : ... .. . ... : F-# 0B . ... : ... .. . ...
ROW 04 : D-2 06 . ... : D-3 08 . ... : ... .. . ... : D-# 0B . ... : E-3 00 . ...
ROW 05 : A-2 06 . ... : A-3 08 . ... : D-3 00 . ... : F-# 0B . ... : ... .. . ...
ROW 06 : D-3 06 . ... : D-4 08 . ... : ... .. . ... : E-# 0B . ... : ... .. . ...
ROW 07 : G-3 06 . ... : G-4 08 . ... : ... .. . ... : F-# 0B . ... : C-3 00 . ...
ROW 08 : A-3 06 . ... : A-4 08 . ... : C-3 00 . ... : D-# 0B . ... : C-3 00 . ...
ROW 09 : D-3 0A . ... : D-4 09 . ... : D-3 00 . ... : F-# 0B . ... : ... .. . ...
ROW 0A : G-3 0A . ... : G-4 09 . ... : ... .. . ... : E-# 0B . ... : ... .. . ...
ROW 0B : A-3 0A . ... : A-4 09 . ... : ... .. . ... : F-# 0B . ... : ... .. . ...
ROW 0C : C-4 0A . ... : D-3 07 . ... : D-3 00 . ... : D-# 0B . ... : E-3 00 . ...
ROW 0D : ... .. . ... : G-3 07 . ... : ... .. . ... : F-# 0B . ... : ... .. . ...
ROW 0E : A-3 0A . ... : C-4 11 . ... : C-2 0D . ... : C-# 05 . ... : C-3 00 . ...
ROW 0F : ... .. . ... : ... .. . ... : ... .. . ... : C-# 05 . ... : ... .. . ...
ROW 10 : ... .. . ... : A-3 11 . ... : D-2 0D . ... : C-# 14 . ... : C-3 00 . ...
ROW 11 : ... .. . ... : ... .. . ... : ... .. . ... : C-# 14 . ... : ... .. . ...
ROW 12 : ... .. . ... : ... .. . ... : D-3 00 . ... : E-# 0B . ... : ... .. . ...
ROW 13 : ... .. . ... : ... .. . ... : ... .. . ... : F-# 0B . ... : ... .. . ...
ROW 14 : C-4 0A . ... : ... .. . ... : ... .. . ... : D-# 0B . ... : E-3 00 . ...
ROW 15 : ... .. . ... : ... .. . ... : D-3 00 . ... : F-# 0B . ... : ... .. . ...
ROW 16 : ... .. . ... : C-4 11 . ... : ... .. . ... : E-# 0B . ... : ... .. . ...
ROW 17 : ... .. . ... : ... .. . ... : ... .. . ... : F-# 0B . ... : C-3 00 . ...
ROW 18 : ... .. . ... : ... .. . ... : C-3 00 . ... : D-# 0B . ... : C-3 00 . ...
ROW 19 : ... .. . ... : ... .. . ... : D-3 00 . ... : F-# 0B . ... : ... .. . ...
ROW 1A : ... .. . ... : ... .. . ... : ... .. . ... : E-# 0B . ... : ... .. . ...
ROW 1B : ... .. . ... : ... .. . ... : ... .. . ... : F-# 0B . ... : ... .. . ...
ROW 1C : ... .. . ... : ... .. . ... : F-3 00 . ... : C-# 05 . ... : E-3 00 . ...
ROW 1D : ... .. . ... : ... .. . ... : ... .. . ... : F-# 0B . ... : ... .. . ...
ROW 1E : ... .. . ... : ... .. . ... : E-3 00 . ... : B-# 05 . ... : ... .. . ...
ROW 1F : ... .. . ... : ... .. . ... : ... .. . ... : F-# 0B . ... : ... .. . ...
ROW 20 : ... .. . ... : ... .. . ... : F-2 0D . ... : B-# 14 . ... : C-3 00 . ...
ROW 21 : ... .. . ... : ... .. . ... : ... .. . ... : F-# 0B . ... : ... .. . ...
ROW 22 : ... .. . ... : ... .. . ... : F-3 00 . ... : E-# 0B . ... : ... .. . ...
ROW 23 : ... .. . ... : ... .. . ... : ... .. . ... : F-# 0B . ... : ... .. . ...
ROW 24 : A-3 06 . ... : A-4 08 . ... : ... .. . ... : D-# 0B . ... : E-3 00 . ...
ROW 25 : F-3 06 . ... : F-4 08 . ... : F-3 00 . ... : F-# 0B . ... : ... .. . ...
ROW 26 : D-3 06 . ... : D-4 08 . ... : ... .. . ... : E-# 0B . ... : ... .. . ...
ROW 27 : F-3 06 . ... : F-4 08 . ... : ... .. . ... : F-# 0B . ... : C-3 00 . ...
ROW 28 : A-3 06 . ... : A-4 08 . ... : E-3 00 . ... : D-# 0B . ... : C-3 00 . ...
ROW 29 : D-3 07 . ... : D-4 09 . ... : F-3 00 . ... : F-# 0B . ... : ... .. . ...
ROW 2A : D-3 0A . ... : F-4 09 . ... : ... .. . ... : E-# 0B . ... : ... .. . ...
ROW 2B : F-3 0A . ... : A-4 09 . ... : ... .. . ... : F-# 0B . ... : ... .. . ...
ROW 2C : A-3 0A . ... : D-4 07 . ... : F-3 00 . ... : D-# 0B . ... : E-3 00 . ...
ROW 2D : ... .. . ... : F-4 07 . ... : ... .. . ... : F-# 0B . ... : ... .. . ...
ROW 2E : B-3 0A . ... : A-3 11 . ... : F-2 0D . ... : C-# 05 . ... : C-3 00 . ...
ROW 2F : ... .. . ... : ... .. . ... : ... .. . ... : C-# 05 . ... : ... .. . ...
ROW 30 : ... .. . ... : B-3 11 . ... : G-2 0D . ... : C-# 14 . ... : C-3 00 . ...
ROW 31 : ... .. . ... : ... .. . ... : ... .. . ... : C-# 14 . ... : ... .. . ...
ROW 32 : ... .. . ... : ... .. . ... : G-3 00 . ... : E-# 0B . ... : ... .. . ...
ROW 33 : ... .. . ... : ... .. . ... : ... .. . ... : F-# 0B . ... : ... .. . ...
ROW 34 : ... .. . ... : ... .. . ... : ... .. . ... : D-# 0B . ... : E-3 00 . ...
ROW 35 : ... .. . ... : ... .. . ... : G-3 00 . ... : F-# 0B . ... : ... .. . ...
ROW 36 : ... .. . ... : ... .. . ... : ... .. . ... : E-# 0B . ... : ... .. . ...
ROW 37 : ... .. . ... : ... .. . ... : ... .. . ... : F-# 0B . ... : C-3 00 . ...
ROW 38 : ... .. . ... : ... .. . ... : G-3 00 . ... : D-# 0B . ... : C-3 00 . ...
ROW 39 : ... .. . ... : ... .. . ... : ... .. . ... : F-# 0B . ... : ... .. . ...
ROW 3A : ... .. . ... : ... .. . ... : ... .. . ... : E-# 0B . ... : ... .. . ...
ROW 3B : ... .. . ... : ... .. . ... : ... .. . ... : F-# 0B . ... : ... .. . ...
ROW 3C : G-2 06 . ... : G-2 08 . ... : G-2 0D . ... : F-# 0B . ... : E-3 00 . ...
ROW 3D : ... .. . ... : ... .. . ... : ... .. . ... : F-# 0B . ... : E-3 00 . ...
ROW 3E : F-2 06 . ... : F-2 08 . ... : F-2 0D . ... : F-# 0B . ... : E-3 00 . ...
ROW 3F : ... .. . ... : ... .. . ... : ... .. . ... : F-# 0B . ... : E-3 00 . ...

PATTERN 09
ROW 00 : D-1 01 . ... : --- .. . ... : D-1 0D . ... : --- .. . ... : C-3 00 . ...
ROW 01 : ... .. . ... : ... .. . ... : ... .. . ... : ... .. . ... : ... .. . ...
ROW 02 : ... .. . ... : ... .. . ... : ... .. . ... : D-# 05 . ... : ... .. . ...
ROW 03 : ... .. . ... : ... .. . ... : ... .. . ... : ... .. . ... : ... .. . ...
ROW 04 : ... .. . ... : ... .. . ... : --- .. . ... : D-# 14 . ... : D-3 00 . ...
ROW 05 : ... .. . ... : ... .. . ... : ... .. . ... : D-# 05 . ... : ... .. . ...
ROW 06 : ... .. . ... : ... .. . ... : ... .. . ... : ... .. . ... : ... .. . ...
ROW 07 : ... .. . ... : ... .. . ... : ... .. . ... : D-# 14 . ... : ... .. . ...
ROW 08 : ... .. . ... : ... .. . ... : ... .. . ... : D-# 05 . ... : ... .. . ...
ROW 09 : ... .. . ... : ... .. . ... : ... .. . ... : D-# 05 . ... : ... .. . ...
ROW 0A : ... .. . ... : ... .. . ... : ... .. . ... : ... .. . ... : ... .. . ...
ROW 0B : ... .. . ... : ... .. . ... : ... .. . ... : D-# 14 . ... : ... .. . ...
ROW 0C : ... .. . ... : D-1 02 . ... : ... .. . ... : D-# 05 . ... : D-3 00 . ...
ROW 0D : ... .. . ... : ... .. . ... : ... .. . ... : ... .. . ... : ... .. . ...
ROW 0E : ... .. . ... : ... .. . ... : C-1 0D . ... : ... .. . ... : C-3 00 . ...
ROW 0F : ... .. . ... : ... .. . ... : ... .. . ... : ... .. . ... : ... .. . ...
ROW 10 : ... .. . ... : ... .. . ... : D-1 0D . ... : D-# 14 . ... : C-3 00 . ...
ROW 11 : ... .. . ... : ... .. . ... : ... .. . ... : ... .. . ... : ... .. . ...
ROW 12 : ... .. . ... : ... .. . ... : ... .. . ... : D-# 05 . ... : ... .. . ...
ROW 13 : ... .. . ... : ... .. . ... : ... .. . ... : ... .. . ... : ... .. . ...
ROW 14 : ... .. . ... : ... .. . ... : --- .. . ... : D-# 14 . ... : D-3 00 . ...
ROW 15 : ... .. . ... : ... .. . ... : ... .. . ... : D-# 05 . ... : ... .. . ...
ROW 16 : ... .. . ... : ... .. . ... : ... .. . ... : ... .. . ... : ... .. . ...
ROW 17 : ... .. . ... : ... .. . ... : ... .. . ... : D-# 14 . ... : ... .. . ...
ROW 18 : ... .. . ... : ... .. . ... : ... .. . ... : D-# 05 . ... : ... .. . ...
ROW 19 : ... .. . ... : ... .. . ... : ... .. . ... : D-# 05 . ... : ... .. . ...
ROW 1A : ... .. . ... : ... .. . ... : ... .. . ... : ... .. . ... : ... .. . ...
ROW 1B : ... .. . ... : ... .. . ... : ... .. . ... : D-# 14 . ... : ... .. . ...
ROW 1C : ... .. . ... : ... .. . ... : ... .. . ... : B-# 04 . ... : D-3 00 . ...
ROW 1D : ... .. . ... : ... .. . ... : ... .. . ... : ... .. . ... : ... .. . ...
ROW 1E : ... .. . ... : ... .. . ... : ... .. . ... : 9-# 14 . ... : ... .. . ...
ROW 1F : ... .. . ... : ... .. . ... : ... .. . ... : ... .. . ... : ... .. . ...
ROW 20 : D-1 01 . ... : ... .. . ... : D-1 0D . ... : ... .. . ... : C-3 00 . ...
ROW 21 : ... .. . ... : ... .. . ... : ... .. . ... : ... .. . ... : ... .. . ...
ROW 22 : ... .. . ... : ... .. . ... : ... .. . ... : D-# 05 . ... : ... .. . ...
ROW 23 : ... .. . ... : ... .. . ... : ... .. . ... : ... .. . ... : ... .. . ...
ROW 24 : ... .. . ... : ... .. . ... : --- .. . ... : D-# 14 . ... : D-3 00 . ...
ROW 25 : ... .. . ... : ... .. . ... : ... .. . ... : D-# 05 . ... : ... .. . ...
ROW 26 : ... .. . ... : ... .. . ... : ... .. . ... : ... .. . ... : ... .. . ...
ROW 27 : ... .. . ... : ... .. . ... : ... .. . ... : D-# 14 . ... : ... .. . ...
ROW 28 : ... .. . ... : ... .. . ... : ... .. . ... : D-# 05 . ... : ... .. . ...
ROW 29 : ... .. . ... : ... .. . ... : ... .. . ... : D-# 05 . ... : ... .. . ...
ROW 2A : ... .. . ... : ... .. . ... : ... .. . ... : ... .. . ... : ... .. . ...
ROW 2B : ... .. . ... : ... .. . ... : ... .. . ... : D-# 14 . ... : ... .. . ...
ROW 2C : ... .. . ... : D-1 08 . ... : ... .. . ... : D-# 05 . ... : D-3 00 . ...
ROW 2D : ... .. . ... : A-1 08 . ... : ... .. . ... : ... .. . ... : ... .. . ...
ROW 2E : ... .. . ... : D-2 08 . ... : C-1 0D . ... : D-# 14 . ... : C-3 00 . ...
ROW 2F : ... .. . ... : F-2 08 . ... : ... .. . ... : ... .. . ... : ... .. . ...
ROW 30 : D-1 09 . ... : A-2 08 . ... : D-1 0D . ... : ... .. . ... : C-3 00 . ...
ROW 31 : A-1 09 . ... : --- .. . ... : ... .. . ... : ... .. . ... : ... .. . ...
ROW 32 : D-2 09 . ... : ... .. . ... : ... .. . ... : D-# 05 . ... : ... .. . ...
ROW 33 : F-2 09 . ... : ... .. . ... : ... .. . ... : ... .. . ... : ... .. . ...
ROW 34 : A-2 09 . ... : ... .. . ... : --- .. . ... : D-# 14 . ... : D-3 00 . ...
ROW 35 : --- .. . ... : ... .. . ... : ... .. . ... : D-# 05 . ... : ... .. . ...
ROW 36 : ... .. . ... : ... .. . ... : ... .. . ... : ... .. . ... : ... .. . ...
ROW 37 : ... .. . ... : ... .. . ... : ... .. . ... : D-# 14 . ... : ... .. . ...
ROW 38 : F-2 01 . ... : F-2 02 . ... : ... .. . ... : D-# 04 . ... : C-3 00 . ...
ROW 39 : ... .. . ... : ... .. . ... : ... .. . ... : ... .. . ... : ... .. . ...
ROW 3A : ... .. . ... : ... .. . ... : ... .. . ... : ... .. . ... : ... .. . ...
ROW 3B : ... .. . ... : ... .. . ... : ... .. . ... : ... .. . ... : ... .. . ...
ROW 3C : ... .. . ... : ... .. . ... : ... .. . ... : --- .. . ... : E-3 00 . ...
ROW 3D : ... .. . ... : ... .. . ... : ... .. . ... : ... .. . ... : E-3 00 . ...
ROW 3E : ... .. . ... : ... .. . ... : ... .. . ... : ... .. . ... : E-3 00 . ...
ROW 3F : ... .. . B02 : ... .. . ... : ... .. . ... : ... .. . ... : E-3 00 . ...

# End of export
